<?xml version="1.0" standalone="no"?><!DOCTYPE svg PUBLIC "-//W3C//DTD SVG 1.1//EN" "http://www.w3.org/Graphics/SVG/1.1/DTD/svg11.dtd"><svg class="icon" width="32px" height="32.00px" viewBox="0 0 1024 1024" version="1.1" xmlns="http://www.w3.org/2000/svg"><path d="M0 0h853.333333v853.333333H0z" fill="#FFFFFF" opacity=".01" /><path d="M85.333333 213.333333a64 64 0 1 0 128 0 64 64 0 0 0-128 0zM85.333333 512a64 64 0 1 0 128 0 64 64 0 0 0-128 0zM85.333333 810.666667a64 64 0 1 0 128 0 64 64 0 0 0-128 0z" fill="#333333" /><path d="M341.333333 170.666667m38.4 0l520.533334 0q38.4 0 38.4 38.4l0 0q0 38.4-38.4 38.4l-520.533334 0q-38.4 0-38.4-38.4l0 0q0-38.4 38.4-38.4Z" fill="#333333" /><path d="M341.333333 469.333333m38.4 0l520.533334 0q38.4 0 38.4 38.4l0 0q0 38.4-38.4 38.4l-520.533334 0q-38.4 0-38.4-38.4l0 0q0-38.4 38.4-38.4Z" fill="#333333" /><path d="M341.333333 768m38.4 0l520.533334 0q38.4 0 38.4 38.4l0 0q0 38.4-38.4 38.4l-520.533334 0q-38.4 0-38.4-38.4l0 0q0-38.4 38.4-38.4Z" fill="#333333" /></svg>