<?xml version="1.0" standalone="no"?><!DOCTYPE svg PUBLIC "-//W3C//DTD SVG 1.1//EN" "http://www.w3.org/Graphics/SVG/1.1/DTD/svg11.dtd"><svg class="icon" width="32px" height="32.00px" viewBox="0 0 1024 1024" version="1.1" xmlns="http://www.w3.org/2000/svg"><path d="M0 0h853.333333v853.333333H0z" fill="#FFFFFF" opacity=".01" /><path d="M861.141333 492.288a33.066667 33.066667 0 0 0 50.773334-42.112l-3.157334-3.797333-328.96-341.504a75.733333 75.733333 0 0 0-102.058666-2.56l-5.034667 4.736-325.888 339.370666a33.066667 33.066667 0 0 0 44.074667 49.066667l3.626666-3.242667 325.888-339.370666a9.6 9.6 0 0 1 11.52-1.834667l2.346667 1.792 326.869333 339.456z" fill="#333333" /><path d="M861.141333 918.954667a33.066667 33.066667 0 0 0 50.773334-42.112l-3.157334-3.797334-328.96-341.504a75.733333 75.733333 0 0 0-102.058666-2.56l-5.034667 4.736-325.888 339.370667a33.066667 33.066667 0 0 0 44.074667 49.066667l3.626666-3.242667 325.888-339.370667a9.6 9.6 0 0 1 11.52-1.834666l2.346667 1.792 326.869333 339.456z" fill="#333333" /></svg>