<?xml version="1.0" standalone="no"?><!DOCTYPE svg PUBLIC "-//W3C//DTD SVG 1.1//EN" "http://www.w3.org/Graphics/SVG/1.1/DTD/svg11.dtd"><svg class="icon" width="32px" height="32.00px" viewBox="0 0 1024 1024" version="1.1" xmlns="http://www.w3.org/2000/svg"><path d="M0 0h853.333333v853.333333H0z" fill="#FFFFFF" opacity=".01" /><path d="M592.384 56.448c-92.245333 1.109333-145.109333 61.952-144.938667 168.533333 0.128 77.141333-74.069333 154.197333-152.661333 153.6H268.8c-41.386667 0.256-74.837333 34.133333-74.752 75.690667l0.853333 416.725333c0.298667 41.813333 34.218667 75.434667 75.861334 75.264l466.048-0.426666c74.026667-0.085333 141.781333-57.088 154.752-130.133334l51.882666-292.266666c18.474667-104.064-55.125333-191.573333-160.554666-190.762667l-39.850667 0.256a10.581333 10.581333 0 0 1-10.496-12.288c4.181333-27.136 6.784-53.973333 6.613333-72.789333-0.853333-107.605333-55.722667-187.178667-138.368-191.274667l-8.362666-0.128z m0.768 64.170667c45.952-0.512 81.109333 48.256 81.749333 127.786666 0.213333 25.557333-6.4 74.069333-15.018666 109.312a32.042667 32.042667 0 0 0 31.146666 39.68l28.245334-0.085333 64.085333-0.426667c65.152-0.512 108.288 50.773333 96.853333 115.285334l-51.925333 292.309333c-7.552 42.453333-48.725333 77.098667-91.605333 77.141333l-466.133334 0.426667a11.306667 11.306667 0 0 1-11.434666-11.306667l-0.853334-416.597333c0-6.272 4.949333-11.306667 11.093334-11.349333l24.96-0.042667c111.786667 0.896 211.968-99.925333 217.173333-208.810667l0.170667-9.088c-0.128-69.845333 24.149333-100.821333 74.496-103.936l6.997333-0.298666zM143.573333 392.106667c18.986667 0 34.389333 15.402667 34.389334 34.432 0 17.408-12.928 28.117333-29.738667 30.378666l-4.650667 0.341334H116.053333v422.869333h27.52c17.408 0 31.829333 10.666667 34.090667 27.434667l0.298667 4.693333a34.389333 34.389333 0 0 1-29.738667 34.090667l-4.650667 0.298666H97.706667c-22.357333 0-40.746667-16.810667-43.264-38.485333l-0.298667-5.12V435.754667c0-22.357333 16.810667-40.789333 38.485333-43.306667l5.077334-0.298667h45.866666z" fill="#323333" /></svg>