<?xml version="1.0" standalone="no"?><!DOCTYPE svg PUBLIC "-//W3C//DTD SVG 1.1//EN" "http://www.w3.org/Graphics/SVG/1.1/DTD/svg11.dtd"><svg class="icon" width="32px" height="32.00px" viewBox="0 0 1024 1024" version="1.1" xmlns="http://www.w3.org/2000/svg"><path d="M0 0h853.333333v853.333333H0z" fill="#FFFFFF" opacity=".01" /><path d="M829.525333 531.712a33.066667 33.066667 0 0 1 50.773334 42.112l-3.157334 3.797333-328.96 341.504a75.733333 75.733333 0 0 1-102.101333 2.56l-4.992-4.736L115.2 577.578667a33.066667 33.066667 0 0 1 44.032-49.066667l3.669333 3.242667 325.888 339.370666c3.072 3.2 7.808 3.84 11.52 1.834667l2.346667-1.792 326.826667-339.456z" fill="#333333" /><path d="M829.525333 105.045333a33.066667 33.066667 0 0 1 50.773334 42.112l-3.157334 3.797334-328.96 341.504a75.733333 75.733333 0 0 1-102.101333 2.56l-4.992-4.736L115.2 150.912a33.066667 33.066667 0 0 1 44.032-49.066667l3.669333 3.242667 325.888 339.370667c3.072 3.2 7.808 3.84 11.52 1.834666l2.346667-1.792 326.826667-339.456z" fill="#333333" /></svg>