<?xml version="1.0" standalone="no"?><!DOCTYPE svg PUBLIC "-//W3C//DTD SVG 1.1//EN" "http://www.w3.org/Graphics/SVG/1.1/DTD/svg11.dtd"><svg class="icon" width="32px" height="32.00px" viewBox="0 0 1024 1024" version="1.1" xmlns="http://www.w3.org/2000/svg"><path d="M0 0h853.333333v853.333333H0z" fill="#FFFFFF" opacity=".01" /><path d="M0 0h1024v1024H0z" fill="#FFFFFF" opacity=".01" /><path d="M279.850667 48.938667l-4.565334 4.565333a33.536 33.536 0 0 0 0 47.402667l404.48 404.48-404.48 404.48a33.536 33.536 0 0 0 0 47.445333l4.565334 4.565333a33.536 33.536 0 0 0 47.402666 0l429.141334-429.098666a33.450667 33.450667 0 0 0 9.6-27.392 33.450667 33.450667 0 0 0-9.6-27.306667L327.253333 48.896a33.536 33.536 0 0 0-47.402666 0z" fill="#333333" /></svg>